<svg width="77" height="77" viewBox="0 0 77 77" fill="none" xmlns="http://www.w3.org/2000/svg">
<rect x="0.5" y="0.5" width="76" height="76" stroke="white"/>
<path d="M58.9977 41.529C58.9967 41.5219 58.9956 41.5149 58.9946 41.5077C58.9905 41.4823 58.9849 41.4571 58.9772 41.4324C58.976 41.4288 58.9754 41.4252 58.9743 41.4215C58.9669 41.3995 58.9581 41.378 58.9476 41.3568L57.9231 39.3079C57.7967 39.0549 57.4892 38.9522 57.236 39.0789C56.9829 39.2053 56.8805 39.5131 57.007 39.7661L57.6607 41.0737H55.4528V20.5851H34.9641V41.0737H54.3915C54.1087 41.0737 53.8794 41.303 53.8794 41.586C53.8794 41.8688 54.1087 42.0981 54.3915 42.0981H34.664L21.6454 54.8781C21.6482 54.7433 21.5993 54.6077 21.4964 54.5048C21.3343 54.3426 21.0914 54.3143 20.8983 54.415L33.9396 41.3737V21.6101C33.9398 21.8926 34.1691 22.1218 34.4517 22.1218C34.7347 22.1218 34.964 21.8924 34.964 21.6096V18.3406L36.2716 18.9944C36.3451 19.0313 36.4233 19.0486 36.5002 19.0486C36.6881 19.0486 36.869 18.9449 36.9588 18.7654C37.0852 18.5123 36.9828 18.2046 36.7298 18.0781L34.6809 17.0536C34.6787 17.0526 34.6764 17.0521 34.6742 17.0511C34.6472 17.0382 34.6194 17.0275 34.5909 17.0195C34.5841 17.0175 34.5773 17.0163 34.5703 17.0146C34.5463 17.0089 34.522 17.0048 34.4975 17.0026C34.4914 17.0021 34.4855 17.001 34.4793 17.0007C34.4514 16.9991 34.4234 17.0003 34.3955 17.0034C34.3876 17.0043 34.3801 17.0056 34.3724 17.0068C34.3479 17.0106 34.3237 17.0161 34.2997 17.0234C34.2954 17.0249 34.291 17.0256 34.2867 17.027C34.265 17.0344 34.2434 17.0431 34.2227 17.0535L32.1738 18.0779C31.9207 18.2044 31.8182 18.5121 31.9447 18.7651C32.071 19.0182 32.3789 19.1207 32.6319 18.9942L33.9394 18.3405V21.3095L20.6221 34.6271V54.6548L18.4606 56.8165L17.9982 55.4295C17.9089 55.1611 17.6189 55.016 17.3504 55.1055C17.082 55.195 16.937 55.4851 17.0264 55.7535L17.7508 57.9267C17.7517 57.9293 17.7531 57.9317 17.7541 57.9343C17.7615 57.9553 17.7702 57.9756 17.7801 57.9953C17.7816 57.9982 17.7826 58.0016 17.7842 58.0046C17.7956 58.0258 17.8086 58.0461 17.8227 58.0654C17.8281 58.0729 17.8341 58.0799 17.84 58.0869C17.8496 58.0988 17.8595 58.1105 17.8702 58.1213C17.8771 58.1284 17.884 58.1352 17.8913 58.1418C17.9026 58.1521 17.9144 58.1619 17.9266 58.1711C17.9337 58.1766 17.9405 58.1821 17.948 58.1872C17.9631 58.1974 17.9788 58.2065 17.995 58.2152C18.0001 58.2181 18.0051 58.2214 18.0103 58.224C18.0311 58.2342 18.0526 58.2433 18.0748 58.2506L20.2479 58.9751C20.3017 58.9929 20.3562 59.0015 20.4099 59.0015C20.6244 59.0015 20.8242 58.8659 20.8957 58.6511C20.9853 58.3827 20.8402 58.0927 20.5717 58.0032L19.1849 57.5409L21.3099 55.4158H41.4105L54.728 42.0983H57.6605L57.0068 43.406C56.8803 43.659 56.9827 43.9667 57.2357 44.0931C57.3093 44.1299 57.3874 44.1474 57.4644 44.1474C57.6523 44.1474 57.8332 44.0436 57.9229 43.8641L58.9473 41.8153C58.9484 41.813 58.9489 41.8109 58.9498 41.8086C58.9628 41.7815 58.9735 41.7536 58.9815 41.7249C58.9834 41.7184 58.9846 41.7118 58.9863 41.7051C58.9922 41.6805 58.9963 41.6558 58.9985 41.6306C58.999 41.6251 59 41.6196 59.0003 41.6141C59.0021 41.5856 59.0007 41.5573 58.9977 41.529ZM52.3794 36.4638C52.3794 36.7466 52.1501 36.9761 51.8671 36.9761C51.5843 36.9761 51.355 36.7466 51.355 36.4638V24.6829H40.5986C40.3156 24.6829 40.0863 24.4535 40.0863 24.1707C40.0863 23.8878 40.3156 23.6585 40.5986 23.6585H51.8673C52.1502 23.6585 52.3795 23.8878 52.3795 24.1707V36.4638H52.3794Z" fill="white"/>
</svg>
