<svg width="44" height="44" viewBox="0 0 44 44" fill="none" xmlns="http://www.w3.org/2000/svg">
<circle cx="22" cy="22" r="22" fill="white"/>
<path d="M21.0775 9.29243L13.4841 15.546C12.905 16.0634 12.8497 16.893 13.2955 17.4375C13.7414 17.9821 14.6426 18.0718 15.1871 17.6259L20.589 13.173L20.589 32.6735C20.589 33.4135 21.1889 34.0135 21.9289 34.0135C22.669 34.0135 23.269 33.4135 23.269 32.6735L23.269 13.173L28.6709 17.6259C29.2153 18.0718 30.1039 17.9714 30.5624 17.4375C31.0352 16.887 30.9184 15.9918 30.3738 15.546L22.7804 9.29243C22.208 8.88534 21.631 8.92009 21.0775 9.29243V9.29243Z" fill="black"/>
</svg>
