<svg width="77" height="77" viewBox="0 0 77 77" fill="none" xmlns="http://www.w3.org/2000/svg">
<rect x="0.5" y="0.5" width="76" height="76" stroke="white"/>
<path d="M55.2918 30.9561H54.1038V27.5747H53.921C52.9157 27.5747 52.0932 26.8436 52.0932 25.8383V22H50.631V25.9297C50.631 26.8436 49.8085 27.6661 48.8032 27.6661V31.0475H29.1547V27.6661C29.0633 27.6661 27.1442 27.7575 27.1442 25.9297V22H25.682V25.9297C25.682 26.8436 24.8595 27.6661 23.8542 27.6661V31.0475H22.5747C21.2039 31.0475 20.0159 32.1441 20.0159 33.6063C20.0159 34.9772 21.1125 36.1652 22.5747 36.1652H28.4236L23.4886 54.5343C23.3059 55.0826 23.58 55.7223 24.1283 55.9051C24.6767 56.0879 25.3164 55.8137 25.4992 55.2654L30.6169 36.0738L32.8103 41.1916H36.283V43.2935H32.5361C31.5308 43.2935 30.7083 44.116 30.7083 45.1213V51.4271C30.7083 52.4324 31.5308 53.2548 32.5361 53.2548H45.3305C46.3357 53.2548 47.1582 52.4324 47.1582 51.4271V45.1213C47.1582 44.116 46.3357 43.2935 45.3305 43.2935H41.5835V41.1916H45.0563L47.2496 36.0738L52.3674 55.2654C52.5502 55.8137 53.1899 56.0879 53.7382 55.9051C54.2865 55.7223 54.5607 55.0826 54.3779 54.5343L49.443 35.9824H55.2918C56.6626 35.9824 57.8507 34.8858 57.8507 33.4236C57.8507 32.1441 56.6626 30.9561 55.2918 30.9561ZM42.1319 48.3199C42.1319 50.0563 40.6697 51.5185 38.9333 51.5185C37.1969 51.5185 35.7347 50.0563 35.7347 48.3199C35.7347 46.5835 37.1969 45.1213 38.9333 45.1213C40.6697 45.1213 42.1319 46.5835 42.1319 48.3199Z" fill="white"/>
<path d="M38.9332 46.2183C37.7452 46.2183 36.8313 47.1321 36.8313 48.3202C36.8313 49.5082 37.7452 50.4221 38.9332 50.4221C40.0299 50.4221 41.0352 49.5082 41.0352 48.3202C41.0352 47.1321 40.0299 46.2183 38.9332 46.2183Z" fill="white"/>
<path d="M56.5713 25.1987C58.9474 25.1987 60.8666 24.102 60.8666 24.102C60.8666 24.102 58.9474 23.0054 56.5713 23.0054C54.1952 23.0054 52.9158 23.4623 52.9158 24.102C52.9158 24.7418 54.1952 25.1987 56.5713 25.1987Z" fill="white"/>
<path d="M49.8084 24.102C49.8084 23.4623 48.6203 23.0054 46.2442 23.0054C43.8681 23.0054 41.949 24.102 41.949 24.102C41.949 24.102 43.8681 25.1987 46.2442 25.1987C48.6203 25.1987 49.8084 24.7418 49.8084 24.102Z" fill="white"/>
<path d="M31.6223 25.1987C33.9984 25.1987 35.9175 24.102 35.9175 24.102C35.9175 24.102 33.9984 23.0054 31.6223 23.0054C29.2462 23.0054 28.0581 23.4623 28.0581 24.102C28.0581 24.7418 29.2462 25.1987 31.6223 25.1987Z" fill="white"/>
<path d="M24.9508 24.102C24.9508 23.4623 23.7627 23.0054 21.3866 23.0054C19.0105 23.0054 17 24.102 17 24.102C17 24.102 18.9192 25.1987 21.2953 25.1987C23.6714 25.1987 24.9508 24.7418 24.9508 24.102Z" fill="white"/>
</svg>
