<svg width="77" height="77" viewBox="0 0 77 77" fill="none" xmlns="http://www.w3.org/2000/svg">
<rect x="0.5" y="0.5" width="76" height="76" stroke="white"/>
<path d="M32.6876 37.726C32.7469 37.6422 32.8257 37.5738 32.9174 37.5265C33.0091 37.4793 33.1109 37.4546 33.2143 37.4546C33.3177 37.4546 33.4195 37.4793 33.5112 37.5265C33.6029 37.5738 33.6817 37.6422 33.7409 37.726L36.8012 42.0537L39.1286 38.9819C39.1885 38.9029 39.2661 38.8387 39.3554 38.7945C39.4446 38.7504 39.5431 38.7274 39.6429 38.7274C39.7427 38.7274 39.8411 38.7504 39.9304 38.7945C40.0196 38.8387 40.0973 38.9029 40.1571 38.9819L42.743 42.3949L44.974 40.1865C45.0337 40.1274 45.1046 40.0805 45.1826 40.0485C45.2606 40.0165 45.3441 40.0001 45.4286 40.0001C45.513 40.0001 45.5966 40.0165 45.6746 40.0485C45.7526 40.0805 45.8235 40.1274 45.8832 40.1865L49.552 43.8183H53.1429V29.8183H24.8571V43.8183H28.3796L32.6876 37.726ZM40.2857 37.4546H37.7143C37.2028 37.4546 36.7123 37.2535 36.3506 36.8955C35.9889 36.5375 35.7857 36.0519 35.7857 35.5455C35.7857 35.0392 35.9889 34.5536 36.3506 34.1956C36.7123 33.8376 37.2028 33.6365 37.7143 33.6365H40.2857C40.7972 33.6365 41.2877 33.8376 41.6494 34.1956C42.0111 34.5536 42.2143 35.0392 42.2143 35.5455C42.2143 36.0519 42.0111 36.5375 41.6494 36.8955C41.2877 37.2535 40.7972 37.4546 40.2857 37.4546V37.4546ZM42.8571 39.3637C42.73 39.3637 42.6057 39.3264 42.5 39.2565C42.3943 39.1866 42.3119 39.0872 42.2632 38.9709C42.2146 38.8546 42.2018 38.7267 42.2266 38.6032C42.2514 38.4798 42.3127 38.3664 42.4026 38.2774C42.4925 38.1884 42.607 38.1278 42.7317 38.1032C42.8564 38.0787 42.9857 38.0913 43.1032 38.1394C43.2206 38.1876 43.321 38.2692 43.3917 38.3738C43.4623 38.4785 43.5 38.6015 43.5 38.7274C43.5 38.8961 43.4323 39.058 43.3117 39.1773C43.1912 39.2967 43.0276 39.3637 42.8571 39.3637ZM35.1429 31.091H42.8571C43.0276 31.091 43.1912 31.158 43.3117 31.2774C43.4323 31.3967 43.5 31.5586 43.5 31.7274C43.5 31.8961 43.4323 32.058 43.3117 32.1773C43.1912 32.2967 43.0276 32.3637 42.8571 32.3637H35.1429C34.9724 32.3637 34.8088 32.2967 34.6883 32.1773C34.5677 32.058 34.5 31.8961 34.5 31.7274C34.5 31.5586 34.5677 31.3967 34.6883 31.2774C34.8088 31.158 34.9724 31.091 35.1429 31.091ZM21 54.6365C21.0002 54.8052 21.068 54.9669 21.1885 55.0862C21.309 55.2055 21.4724 55.2726 21.6429 55.2728H56.3571C56.5276 55.2726 56.691 55.2055 56.8115 55.0862C56.932 54.9669 56.9998 54.8052 57 54.6365V26.0001H21V54.6365ZM37.0714 52.7274H28.0714C27.9009 52.7274 27.7374 52.6603 27.6169 52.541C27.4963 52.4216 27.4286 52.2598 27.4286 52.091C27.4286 51.9222 27.4963 51.7604 27.6169 51.641C27.7374 51.5217 27.9009 51.4546 28.0714 51.4546H37.0714C37.2419 51.4546 37.4054 51.5217 37.526 51.641C37.6466 51.7604 37.7143 51.9222 37.7143 52.091C37.7143 52.2598 37.6466 52.4216 37.526 52.541C37.4054 52.6603 37.2419 52.7274 37.0714 52.7274ZM37.0714 50.1819H33.2143C33.0438 50.1819 32.8803 50.1149 32.7597 49.9955C32.6392 49.8762 32.5714 49.7143 32.5714 49.5455C32.5714 49.3768 32.6392 49.2149 32.7597 49.0956C32.8803 48.9762 33.0438 48.9092 33.2143 48.9092H37.0714C37.2419 48.9092 37.4054 48.9762 37.526 49.0956C37.6466 49.2149 37.7143 49.3768 37.7143 49.5455C37.7143 49.7143 37.6466 49.8762 37.526 49.9955C37.4054 50.1149 37.2419 50.1819 37.0714 50.1819ZM37.0714 47.6365H31.9286C31.7581 47.6365 31.5946 47.5694 31.474 47.4501C31.3534 47.3307 31.2857 47.1689 31.2857 47.0001C31.2857 46.8313 31.3534 46.6695 31.474 46.5501C31.5946 46.4308 31.7581 46.3637 31.9286 46.3637H37.0714C37.2419 46.3637 37.4054 46.4308 37.526 46.5501C37.6466 46.6695 37.7143 46.8313 37.7143 47.0001C37.7143 47.1689 37.6466 47.3307 37.526 47.4501C37.4054 47.5694 37.2419 47.6365 37.0714 47.6365ZM40.2857 52.091C40.2857 52.2598 40.218 52.4216 40.0974 52.541C39.9769 52.6603 39.8134 52.7274 39.6429 52.7274C39.4724 52.7274 39.3088 52.6603 39.1883 52.541C39.0677 52.4216 39 52.2598 39 52.091V47.0001C39 46.8313 39.0677 46.6695 39.1883 46.5501C39.3088 46.4308 39.4724 46.3637 39.6429 46.3637C39.8134 46.3637 39.9769 46.4308 40.0974 46.5501C40.218 46.6695 40.2857 46.8313 40.2857 47.0001V52.091ZM43.5 52.7274H42.2143C42.0438 52.7274 41.8803 52.6603 41.7597 52.541C41.6392 52.4216 41.5714 52.2598 41.5714 52.091C41.5714 51.9222 41.6392 51.7604 41.7597 51.641C41.8803 51.5217 42.0438 51.4546 42.2143 51.4546H43.5C43.6705 51.4546 43.834 51.5217 43.9546 51.641C44.0751 51.7604 44.1429 51.9222 44.1429 52.091C44.1429 52.2598 44.0751 52.4216 43.9546 52.541C43.834 52.6603 43.6705 52.7274 43.5 52.7274ZM42.2143 48.9092H47.3571C47.5276 48.9092 47.6912 48.9762 47.8117 49.0956C47.9323 49.2149 48 49.3768 48 49.5455C48 49.7143 47.9323 49.8762 47.8117 49.9955C47.6912 50.1149 47.5276 50.1819 47.3571 50.1819H42.2143C42.0438 50.1819 41.8803 50.1149 41.7597 49.9955C41.6392 49.8762 41.5714 49.7143 41.5714 49.5455C41.5714 49.3768 41.6392 49.2149 41.7597 49.0956C41.8803 48.9762 42.0438 48.9092 42.2143 48.9092ZM41.5714 47.0001C41.5714 46.8313 41.6392 46.6695 41.7597 46.5501C41.8803 46.4308 42.0438 46.3637 42.2143 46.3637H46.0714C46.2419 46.3637 46.4054 46.4308 46.526 46.5501C46.6466 46.6695 46.7143 46.8313 46.7143 47.0001C46.7143 47.1689 46.6466 47.3307 46.526 47.4501C46.4054 47.5694 46.2419 47.6365 46.0714 47.6365H42.2143C42.0438 47.6365 41.8803 47.5694 41.7597 47.4501C41.6392 47.3307 41.5714 47.1689 41.5714 47.0001ZM51.2143 52.7274H46.0714C45.9009 52.7274 45.7374 52.6603 45.6169 52.541C45.4963 52.4216 45.4286 52.2598 45.4286 52.091C45.4286 51.9222 45.4963 51.7604 45.6169 51.641C45.7374 51.5217 45.9009 51.4546 46.0714 51.4546H51.2143C51.3848 51.4546 51.5483 51.5217 51.6689 51.641C51.7894 51.7604 51.8571 51.9222 51.8571 52.091C51.8571 52.2598 51.7894 52.4216 51.6689 52.541C51.5483 52.6603 51.3848 52.7274 51.2143 52.7274ZM53.7857 50.1819H49.9286C49.7581 50.1819 49.5946 50.1149 49.474 49.9955C49.3534 49.8762 49.2857 49.7143 49.2857 49.5455C49.2857 49.3768 49.3534 49.2149 49.474 49.0956C49.5946 48.9762 49.7581 48.9092 49.9286 48.9092H53.7857C53.9562 48.9092 54.1197 48.9762 54.2403 49.0956C54.3608 49.2149 54.4286 49.3768 54.4286 49.5455C54.4286 49.7143 54.3608 49.8762 54.2403 49.9955C54.1197 50.1149 53.9562 50.1819 53.7857 50.1819ZM53.7857 47.6365H48.6429C48.4724 47.6365 48.3088 47.5694 48.1883 47.4501C48.0677 47.3307 48 47.1689 48 47.0001C48 46.8313 48.0677 46.6695 48.1883 46.5501C48.3088 46.4308 48.4724 46.3637 48.6429 46.3637H53.7857C53.9562 46.3637 54.1197 46.4308 54.2403 46.5501C54.3608 46.6695 54.4286 46.8313 54.4286 47.0001C54.4286 47.1689 54.3608 47.3307 54.2403 47.4501C54.1197 47.5694 53.9562 47.6365 53.7857 47.6365ZM23.5714 29.1819C23.5714 29.0131 23.6392 28.8513 23.7597 28.7319C23.8803 28.6126 24.0438 28.5455 24.2143 28.5455H53.7857C53.9562 28.5455 54.1197 28.6126 54.2403 28.7319C54.3608 28.8513 54.4286 29.0131 54.4286 29.1819V44.4546C54.4286 44.6234 54.3608 44.7853 54.2403 44.9046C54.1197 45.024 53.9562 45.091 53.7857 45.091H24.2143C24.0438 45.091 23.8803 45.024 23.7597 44.9046C23.6392 44.7853 23.5714 44.6234 23.5714 44.4546V29.1819ZM30 47.0001C30 47.1689 29.9323 47.3307 29.8117 47.4501C29.6912 47.5694 29.5276 47.6365 29.3571 47.6365H26.7857C26.6152 47.6365 26.4517 47.5694 26.3311 47.4501C26.2106 47.3307 26.1429 47.1689 26.1429 47.0001C26.1429 46.8313 26.2106 46.6695 26.3311 46.5501C26.4517 46.4308 26.6152 46.3637 26.7857 46.3637H29.3571C29.5276 46.3637 29.6912 46.4308 29.8117 46.5501C29.9323 46.6695 30 46.8313 30 47.0001ZM24.2143 48.9092H30.6429C30.8134 48.9092 30.9769 48.9762 31.0974 49.0956C31.218 49.2149 31.2857 49.3768 31.2857 49.5455C31.2857 49.7143 31.218 49.8762 31.0974 49.9955C30.9769 50.1149 30.8134 50.1819 30.6429 50.1819H24.2143C24.0438 50.1819 23.8803 50.1149 23.7597 49.9955C23.6392 49.8762 23.5714 49.7143 23.5714 49.5455C23.5714 49.3768 23.6392 49.2149 23.7597 49.0956C23.8803 48.9762 24.0438 48.9092 24.2143 48.9092V48.9092ZM24.2143 51.4546H25.5C25.6705 51.4546 25.834 51.5217 25.9546 51.641C26.0751 51.7604 26.1429 51.9222 26.1429 52.091C26.1429 52.2598 26.0751 52.4216 25.9546 52.541C25.834 52.6603 25.6705 52.7274 25.5 52.7274H24.2143C24.0438 52.7274 23.8803 52.6603 23.7597 52.541C23.6392 52.4216 23.5714 52.2598 23.5714 52.091C23.5714 51.9222 23.6392 51.7604 23.7597 51.641C23.8803 51.5217 24.0438 51.4546 24.2143 51.4546V51.4546ZM40.9286 35.5455C40.9284 35.7143 40.8606 35.876 40.7401 35.9953C40.6196 36.1146 40.4562 36.1817 40.2857 36.1819H37.7143C37.5438 36.1819 37.3803 36.1149 37.2597 35.9955C37.1392 35.8762 37.0714 35.7143 37.0714 35.5455C37.0714 35.3768 37.1392 35.2149 37.2597 35.0956C37.3803 34.9762 37.5438 34.9092 37.7143 34.9092H40.2857C40.4562 34.9094 40.6196 34.9765 40.7401 35.0958C40.8606 35.2151 40.9284 35.3768 40.9286 35.5455V35.5455ZM39.6429 40.4243L42.2143 43.8183H37.0714L39.6429 40.4243ZM56.3571 20.9092H21.6429C21.4724 20.9094 21.309 20.9765 21.1885 21.0958C21.068 21.2151 21.0002 21.3768 21 21.5455V24.7274H57V21.5455C56.9998 21.3768 56.932 21.2151 56.8115 21.0958C56.691 20.9765 56.5276 20.9094 56.3571 20.9092V20.9092ZM22.9286 23.4546C22.8014 23.4546 22.6771 23.4173 22.5714 23.3474C22.4657 23.2775 22.3833 23.1781 22.3346 23.0618C22.286 22.9455 22.2733 22.8176 22.2981 22.6941C22.3229 22.5707 22.3841 22.4573 22.474 22.3683C22.5639 22.2793 22.6785 22.2187 22.8032 22.1941C22.9279 22.1696 23.0571 22.1822 23.1746 22.2303C23.292 22.2785 23.3924 22.3601 23.4631 22.4647C23.5337 22.5694 23.5714 22.6924 23.5714 22.8183C23.5714 22.987 23.5037 23.1489 23.3831 23.2682C23.2626 23.3876 23.0991 23.4546 22.9286 23.4546ZM25.5 23.4546C25.3729 23.4546 25.2486 23.4173 25.1428 23.3474C25.0371 23.2775 24.9547 23.1781 24.9061 23.0618C24.8574 22.9455 24.8447 22.8176 24.8695 22.6941C24.8943 22.5707 24.9555 22.4573 25.0454 22.3683C25.1353 22.2793 25.2499 22.2187 25.3746 22.1941C25.4993 22.1696 25.6285 22.1822 25.746 22.2303C25.8635 22.2785 25.9639 22.3601 26.0345 22.4647C26.1052 22.5694 26.1429 22.6924 26.1429 22.8183C26.1429 22.987 26.0751 23.1489 25.9546 23.2682C25.834 23.3876 25.6705 23.4546 25.5 23.4546ZM28.0714 23.4546C27.9443 23.4546 27.82 23.4173 27.7143 23.3474C27.6086 23.2775 27.5262 23.1781 27.4775 23.0618C27.4288 22.9455 27.4161 22.8176 27.4409 22.6941C27.4657 22.5707 27.527 22.4573 27.6169 22.3683C27.7068 22.2793 27.8213 22.2187 27.946 22.1941C28.0707 22.1696 28.2 22.1822 28.3174 22.2303C28.4349 22.2785 28.5353 22.3601 28.6059 22.4647C28.6766 22.5694 28.7143 22.6924 28.7143 22.8183C28.7143 22.987 28.6466 23.1489 28.526 23.2682C28.4054 23.3876 28.2419 23.4546 28.0714 23.4546ZM33.2143 39.2007L35.9894 43.1252L35.4643 43.8183H29.949L33.2143 39.2007ZM45.4286 41.5364L47.7337 43.8183H43.8214L43.5223 43.4234L45.4286 41.5364Z" fill="white"/>
</svg>
