<svg height="125.139" viewBox="0 0 20.307 125.139" width="20.307" xmlns="http://www.w3.org/2000/svg"><path d="m-.147 0h3.759l1.365-3.549h5.733l1.344 3.549h3.906l-5.943-14.7h-4.137zm6.216-6.426 1.806-4.7 1.764 4.7zm14.2-9.009-3.4.735v14.7h3.4zm3.671 12.054c0 2.331 1.365 3.528 4.032 3.528a10.109 10.109 0 0 0 2.373-.336v-2.751a4.943 4.943 0 0 1 -1.533.231c-1.092 0-1.47-.357-1.47-1.344v-4.221h3.108v-2.835h-3.108v-3.591l-3.4.735v2.856h-2.249v2.835h2.247zm11.382 3.57a5.2 5.2 0 0 0 3.066-.861v.672h3.36v-7.119c0-2.667-1.785-4.2-4.872-4.2a12.362 12.362 0 0 0 -5.187 1.219l1.218 2.5a8.917 8.917 0 0 1 3.36-.882c1.407 0 2.121.546 2.121 1.659v.546a10.105 10.105 0 0 0 -2.52-.315c-2.9 0-4.578 1.218-4.578 3.339 0 2.035 1.659 3.442 4.032 3.442zm-.8-3.507c0-.693.672-1.092 1.848-1.092a8.035 8.035 0 0 1 2.016.252v1.428a4.025 4.025 0 0 1 -2.121.525c-1.09.005-1.741-.42-1.741-1.113zm10.941-8.82a1.873 1.873 0 0 0 1.869-1.869 1.873 1.873 0 0 0 -1.869-1.869 1.873 1.873 0 0 0 -1.863 1.869 1.873 1.873 0 0 0 1.865 1.869zm1.7 1.029h-3.4v11.109h3.4zm2.103 11.109h3.4v-7.056a3.03 3.03 0 0 1 2.583-1.407 3.9 3.9 0 0 1 1.617.336v-2.961a2.366 2.366 0 0 0 -1.281-.273 3.666 3.666 0 0 0 -2.917 1.361v-1.113h-3.4zm14.154 0h4.851c4.494 0 7.729-3.087 7.729-7.35s-3.255-7.35-7.728-7.35h-4.852zm4.935-13.23a5.834 5.834 0 0 1 6.006 5.88 5.834 5.834 0 0 1 -6.006 5.88h-3.318v-11.76zm18.753 12.117-.966-1.029a4.585 4.585 0 0 1 -2.9.966 3.953 3.953 0 0 1 -3.942-3.612h8.631v-.483a5.163 5.163 0 0 0 -4.977-5.418 5.265 5.265 0 0 0 -5.187 5.418 5.362 5.362 0 0 0 5.414 5.46 6.227 6.227 0 0 0 3.927-1.302zm-4.2-8.211a3.662 3.662 0 0 1 3.465 3.3h-7.035a3.66 3.66 0 0 1 3.57-3.3zm6.216 7.875a6.4 6.4 0 0 0 4.431 1.638c2.415 0 4.263-1.386 4.263-3.213 0-1.617-1.05-2.562-3.15-2.856l-1.827-.252c-1.386-.21-1.953-.651-1.953-1.554 0-1.029.987-1.743 2.436-1.743a5.9 5.9 0 0 1 3.4 1.176l.819-1.05a6.726 6.726 0 0 0 -4.137-1.386c-2.31 0-3.948 1.3-3.948 3.066 0 1.6 1.008 2.52 3.108 2.835l1.827.252c1.344.189 1.953.693 1.953 1.6 0 1.113-1.176 1.89-2.856 1.89a5.037 5.037 0 0 1 -3.423-1.407zm11.214-11.088a1.053 1.053 0 0 0 1.05-1.05 1.04 1.04 0 0 0 -1.05-1.05 1.053 1.053 0 0 0 -1.05 1.05 1.067 1.067 0 0 0 1.05 1.05zm.777 2.016h-1.554v10.521h1.554zm7.413 10.6a5.111 5.111 0 0 0 3.339-1.218v1.412c0 1.848-1.05 2.814-3.045 2.814a6.945 6.945 0 0 1 -3.381-.966l-.672 1.218a8.248 8.248 0 0 0 4.116 1.092c2.919 0 4.536-1.491 4.536-4.179v-10.773h-1.533v1.05a5.2 5.2 0 0 0 -3.318-1.239 5.281 5.281 0 0 0 -5.292 5.4 5.272 5.272 0 0 0 5.25 5.394zm-3.717-5.4a3.859 3.859 0 0 1 3.843-4.011 4.038 4.038 0 0 1 3.213 1.432v5.17a3.961 3.961 0 0 1 -3.213 1.449 3.89 3.89 0 0 1 -3.843-4.032zm11.256 5.321h1.554v-7.749a3.271 3.271 0 0 1 2.9-1.617 2.769 2.769 0 0 1 2.94 3.024v6.342h1.533v-6.657a3.875 3.875 0 0 0 -4.053-4.074 4.164 4.164 0 0 0 -3.318 1.449v-1.239h-1.554z" fill="#fff" transform="matrix(0 -1 1 0 15.876 124.992)"/></svg>