<svg height="14.995" viewBox="0 0 21.422 14.995" width="21.422" xmlns="http://www.w3.org/2000/svg"><g fill="#fff"><path d="m.462 21.422a.383.383 0 0 1 -.336-.2.928.928 0 0 1 -.126-.5v-20.022a.928.928 0 0 1 .126-.5.383.383 0 0 1 .336-.2h1.05a.408.408 0 0 1 .357.184.913.913 0 0 1 .126.516v20.018a.873.873 0 0 1 -.137.5.407.407 0 0 1 -.346.2z" transform="matrix(0 -1 1 0 0 14.995)"/><path d="m.462 14.422a.44.44 0 0 1 -.336-.134.476.476 0 0 1 -.126-.34v-13.474a.476.476 0 0 1 .126-.34.44.44 0 0 1 .336-.134h1.05a.488.488 0 0 1 .357.124.468.468 0 0 1 .126.35v13.474a.456.456 0 0 1 -.137.34.474.474 0 0 1 -.346.134z" transform="matrix(0 -1 1 0 7 8.495)"/><path d="m.462 21.422a.383.383 0 0 1 -.336-.2.928.928 0 0 1 -.126-.5v-20.022a.928.928 0 0 1 .126-.5.383.383 0 0 1 .336-.2h1.05a.408.408 0 0 1 .357.184.913.913 0 0 1 .126.516v20.018a.873.873 0 0 1 -.137.5.407.407 0 0 1 -.346.2z" transform="matrix(0 -1 1 0 0 1.995)"/></g></svg>