<svg height="17.402" viewBox="0 0 17.427 17.402" width="17.427" xmlns="http://www.w3.org/2000/svg"><path d="m-7407.845-10737.488-.8-.8a.407.407 0 0 1 -.105-.407 1.023 1.023 0 0 1 .289-.483l6.879-6.878-6.879-6.879a1.009 1.009 0 0 1 -.3-.494.435.435 0 0 1 .132-.413l.8-.8a.408.408 0 0 1 .408-.1 1.008 1.008 0 0 1 .483.288l6.879 6.88 6.88-6.88a.987.987 0 0 1 .48-.288.408.408 0 0 1 .408.1l.8.8a.436.436 0 0 1 .135.413 1 1 0 0 1 -.3.494l-6.879 6.879 6.879 6.878a1 1 0 0 1 .289.483.407.407 0 0 1 -.1.407l-.8.8a.438.438 0 0 1 -.416.113.968.968 0 0 1 -.491-.28l-6.879-6.879-6.878 6.879a.941.941 0 0 1 -.491.28.583.583 0 0 1 -.113.012.412.412 0 0 1 -.31-.125z" fill="#fff" transform="translate(7408.772 10754.766)"/></svg>