<svg width="77" height="77" viewBox="0 0 77 77" fill="none" xmlns="http://www.w3.org/2000/svg">
<rect x="0.5" y="0.5" width="76" height="76" stroke="white"/>
<path d="M38.2737 38.7803C36.1324 38.7803 34.3953 40.5174 34.3953 42.6588C34.3953 44.793 36.1324 46.5301 38.2737 46.5301C40.408 46.5301 42.1451 44.793 42.1451 42.6588C42.1451 40.5174 40.408 38.7803 38.2737 38.7803Z" fill="white"/>
<path d="M53.5821 28.1447H44.7404L43.7619 25.2518C43.4995 24.1315 42.5778 23.3516 41.5142 23.3516H35.0265C33.9558 23.3516 33.0412 24.1315 32.7859 25.2589L31.8004 28.1447H25.0148V26.7479C25.0148 26.3579 24.6957 26.0389 24.3058 26.0389C23.9158 26.0389 23.5967 26.3579 23.5967 26.7479V28.1447H22.9657C21.6327 28.1447 20.5479 29.2296 20.5479 30.5626V51.8905C20.5479 53.2235 21.6327 54.3084 22.9657 54.3084H53.5821C54.9151 54.3084 56 53.2235 56 51.8905V30.5626C56 29.2296 54.9151 28.1447 53.5821 28.1447ZM38.2739 50.9688C33.6864 50.9688 29.9568 47.2392 29.9568 42.6588C29.9568 38.0713 33.6864 34.3417 38.2739 34.3417C42.8543 34.3417 46.5839 38.0713 46.5839 42.6588C46.5839 47.2392 42.8543 50.9688 38.2739 50.9688ZM48.6259 33.6114C48.5905 33.6965 48.5337 33.7745 48.4699 33.8383C48.3423 33.973 48.158 34.051 47.9736 34.051C47.7821 34.051 47.5978 33.973 47.4702 33.8383C47.3993 33.7745 47.3496 33.6965 47.3142 33.6114C47.2788 33.5263 47.2575 33.4342 47.2575 33.342C47.2575 33.2498 47.2788 33.1576 47.3142 33.0655C47.3496 32.9804 47.3993 32.9024 47.4702 32.8386C47.6333 32.6755 47.8743 32.5975 48.1083 32.6471C48.1509 32.6542 48.2005 32.6684 48.243 32.6826C48.2856 32.7038 48.3281 32.7251 48.3636 32.7464C48.399 32.7748 48.4345 32.8031 48.4699 32.8386C48.5337 32.9024 48.5905 32.9804 48.6259 33.0655C48.6614 33.1576 48.6826 33.2498 48.6826 33.342C48.6826 33.4342 48.6614 33.5263 48.6259 33.6114ZM51.4621 33.6114C51.4266 33.6965 51.3699 33.7745 51.3061 33.8383C51.1785 33.973 50.9941 34.051 50.8098 34.051C50.6183 34.051 50.434 33.973 50.3063 33.8383C50.2355 33.7745 50.1858 33.6965 50.1504 33.6114C50.1149 33.5263 50.0936 33.4342 50.0936 33.342C50.0936 33.2923 50.1007 33.2498 50.1149 33.2002C50.122 33.1576 50.1362 33.108 50.1504 33.0655C50.1716 33.0229 50.1929 32.9875 50.2142 32.9449C50.2425 32.9095 50.2709 32.874 50.3063 32.8386C50.5687 32.5762 51.0438 32.5762 51.3061 32.8386C51.3416 32.874 51.3699 32.9095 51.3983 32.9449C51.4195 32.9875 51.4408 33.0229 51.4621 33.0655C51.4763 33.108 51.4905 33.1576 51.5046 33.2002C51.5117 33.2498 51.5188 33.2923 51.5188 33.342C51.5188 33.4342 51.4975 33.5263 51.4621 33.6114Z" fill="white"/>
</svg>
