<svg width="77" height="77" viewBox="0 0 77 77" fill="none" xmlns="http://www.w3.org/2000/svg">
<rect x="0.5" y="0.5" width="76" height="76" stroke="white"/>
<path d="M59.5759 44.2557V52.9104L51.7199 48.736H50.8711C50.1671 48.736 49.5969 48.3254 49.5969 47.8197V44.2557V40.6918C49.5969 40.1861 50.1671 39.7755 50.8711 39.7755H51.7199L59.5759 35.6006V44.2557Z" fill="white"/>
<path d="M42.7191 39.5965C39.4651 39.5965 36.6216 37.8104 35.1122 35.1689H33.2034C31.694 37.8104 28.8505 39.5965 25.5965 39.5965C23.4545 39.5965 21.4905 38.8218 19.9668 37.5399V51.5113C19.9668 52.5232 20.7875 53.3439 21.7994 53.3439H46.2365C47.2484 53.3439 48.0691 52.5237 48.0691 51.5113V37.7644C46.5883 38.9113 44.7327 39.5965 42.7191 39.5965Z" fill="white"/>
<path d="M25.5965 23C21.2732 23 17.7563 26.5169 17.7563 30.8401C17.7563 35.1628 21.2732 38.6802 25.5965 38.6802C29.9197 38.6802 33.4366 35.1628 33.4366 30.8401C33.4366 26.5169 29.9197 23 25.5965 23ZM25.5965 32.6221C24.6122 32.6221 23.815 31.8239 23.815 30.8401C23.815 29.8563 24.6127 29.0587 25.5965 29.0587C26.5802 29.0587 27.3784 29.8568 27.3784 30.8401C27.3784 31.8239 26.5808 32.6221 25.5965 32.6221Z" fill="white"/>
<path d="M42.719 23C38.3958 23 34.8789 26.5169 34.8789 30.8401C34.8789 35.1628 38.3963 38.6802 42.719 38.6802C47.0417 38.6802 50.5591 35.1628 50.5591 30.8401C50.5591 26.5169 47.0417 23 42.719 23ZM42.719 32.6221C41.7347 32.6221 40.9376 31.8239 40.9376 30.8406C40.9376 29.8563 41.7352 29.0587 42.719 29.0587C43.7028 29.0587 44.5005 29.8568 44.5005 30.8406C44.5005 31.8239 43.7033 32.6221 42.719 32.6221Z" fill="white"/>
</svg>
