<svg width="201" height="31" viewBox="0 0 201 31" fill="none" xmlns="http://www.w3.org/2000/svg">
<path d="M27.808 1.664V1.92H27.84C28.096 2.208 30.56 5.248 29.152 9.312L26.304 17.472L24 10.304C22.4 5.28 24.864 1.92 24.864 1.92V1.664H13.6V1.92C14.848 3.936 15.872 6.08 16.64 8.288L16.992 9.28L13.92 17.728L11.392 9.312C10.144 5.12 12.096 1.92 12.096 1.92V1.664H0.832001V1.92C2.464 3.936 3.712 6.24 4.576 8.672L9.856 24H12.576L17.472 10.624L22.144 24H24.992L29.792 10.304C31.584 5.216 34.08 2.304 34.368 1.952L34.4 1.92V1.664H27.808Z" fill="white"/>
<path d="M46.7165 22.688C46.0445 21.568 45.6925 20.256 45.6925 18.88V13.6C45.6925 12.384 45.5965 11.488 45.4045 10.88C45.2125 10.272 44.8925 9.728 44.4125 9.28C43.8685 8.736 43.1325 8.288 42.2365 8C41.3725 7.712 40.3805 7.552 39.2925 7.552C37.3405 7.552 35.7405 8.032 34.4925 8.928C33.2765 9.824 32.6365 10.976 32.6365 12.32C32.6365 12.96 32.8285 13.472 33.1805 13.856C33.5325 14.272 34.0125 14.464 34.5885 14.464C35.2285 14.464 35.7405 14.24 36.1245 13.792C36.5085 13.344 36.7325 12.736 36.7325 12C36.7325 11.904 36.7005 11.712 36.7005 11.36C36.6685 11.008 36.6685 10.72 36.6685 10.464C36.6685 9.984 36.8285 9.6 37.1485 9.28C37.5005 8.96 37.9165 8.8 38.4285 8.8C39.0365 8.8 39.5165 9.056 39.7725 9.536C40.0285 10.048 40.1885 10.848 40.1885 11.968V13.056C36.7325 14.464 34.4605 15.648 33.3405 16.608C32.2205 17.568 31.6445 18.688 31.6445 20C31.6445 21.088 32.0285 21.984 32.7645 22.72C33.5005 23.392 34.4605 23.744 35.6125 23.744C36.5085 23.744 37.3725 23.552 38.1725 23.104C38.5885 22.88 39.0365 22.56 39.4525 22.208C39.7085 21.984 39.9325 21.728 40.1885 21.472V23.744H47.2285V23.52L46.7165 22.688ZM38.8765 20.864C38.4605 20.864 38.1405 20.672 37.9165 20.288C37.6605 19.904 37.5325 19.392 37.5325 18.752C37.5325 17.632 37.7565 16.672 38.2045 15.872C38.6525 15.104 39.3245 14.528 40.1885 14.176V17.056C40.1885 18.752 40.0925 19.808 39.9005 20.256C39.7085 20.672 39.3565 20.864 38.8765 20.864Z" fill="white"/>
<path d="M60.9258 8.192C61.8858 9.696 62.0458 11.616 61.3418 13.28L59.1978 18.208L57.2458 13.248C56.6058 11.584 56.7338 9.728 57.6618 8.192V7.968H47.9658V8.192L48.7978 9.344C49.4058 10.176 49.9178 11.072 50.3338 12L55.8698 24.224C55.9658 24.48 56.0938 24.96 55.9658 25.44C55.9658 25.536 55.9338 25.632 55.9018 25.696C55.7418 26.208 55.2938 26.432 54.8458 26.56C54.6538 26.624 54.4618 26.624 54.2378 26.624C54.0138 26.592 53.6938 26.496 53.2458 26.336C53.1818 26.336 53.1498 26.304 53.0858 26.304C52.2538 25.984 51.6138 25.92 51.1658 26.048C50.6858 26.176 50.3337 26.464 50.1097 26.88C49.8857 27.296 49.8218 27.712 49.9818 28.192C50.1418 28.768 50.5578 29.216 51.1658 29.44C51.7738 29.696 52.4778 29.696 53.2458 29.472C54.3658 29.12 55.2618 28.352 55.9018 27.2C56.1898 26.688 56.4458 26.08 56.6698 25.408L57.0218 24.384L61.9498 13.44C62.7818 11.584 63.8377 9.856 65.1497 8.288L65.2458 8.192V7.968H60.9258V8.192ZM55.7738 24.032C55.7738 24.032 55.8058 24.128 55.8698 24.224L55.7738 24.032Z" fill="white"/>
<path d="M83.3623 12.16C83.0423 11.2 82.5942 10.368 82.0182 9.696C81.4422 9.024 80.7383 8.512 79.9383 8.128C79.1063 7.744 78.2103 7.584 77.2503 7.584C76.2263 7.584 75.2982 7.776 74.4662 8.192C73.6342 8.608 72.9303 9.152 72.2903 9.824V7.744L72.1302 7.584L64.8662 9.088V9.312C65.8582 10.464 66.4342 11.904 66.4342 13.44V24.672C66.4342 26.56 65.8263 28.448 64.7383 30.016V30.24H74.1143V30.016C72.9303 28.448 72.2903 26.528 72.2903 24.544V23.552C72.6423 23.712 73.0583 23.872 73.4743 23.968C73.9223 24.096 74.4343 24.16 75.0103 24.16C76.3863 24.16 77.6343 23.936 78.7223 23.488C79.8103 23.072 80.7382 22.464 81.5062 21.696C82.2742 20.896 82.8503 19.968 83.2343 18.912C83.6503 17.824 83.8423 16.64 83.8423 15.36C83.8423 14.176 83.6823 13.12 83.3623 12.16ZM77.5703 19.392C77.4103 20.224 77.1863 20.96 76.8983 21.568C76.6103 22.176 76.2263 22.656 75.7783 23.008C75.3623 23.36 74.8182 23.52 74.2422 23.52C73.8582 23.52 73.5063 23.424 73.1543 23.2C72.8023 22.976 72.5143 22.624 72.2903 22.208V10.464C72.5463 10.272 72.8343 10.112 73.1543 10.016C73.4423 9.888 73.7623 9.824 74.1143 9.824C75.3623 9.824 76.2582 10.432 76.8662 11.616C77.4742 12.8 77.7943 14.464 77.7943 16.576C77.7943 17.6 77.6983 18.528 77.5703 19.392Z" fill="white"/>
<path d="M104.119 12.576C103.671 11.552 103.031 10.688 102.231 9.952C101.431 9.184 100.471 8.608 99.3508 8.192C98.2628 7.776 97.0468 7.584 95.7668 7.584C94.4868 7.584 93.3028 7.776 92.1828 8.192C91.0948 8.608 90.1347 9.184 89.3347 9.952C88.5347 10.688 87.8948 11.552 87.4468 12.576C86.9988 13.6 86.7428 14.688 86.7428 15.872C86.7428 17.056 86.9668 18.144 87.4468 19.168C87.8948 20.192 88.5347 21.056 89.3347 21.792C90.1347 22.528 91.0948 23.104 92.1828 23.52C93.2708 23.936 94.4868 24.16 95.7668 24.16C97.0468 24.16 98.2628 23.936 99.3508 23.52C100.471 23.104 101.431 22.528 102.231 21.792C103.031 21.056 103.671 20.192 104.119 19.168C104.567 18.144 104.791 17.056 104.791 15.872C104.791 14.688 104.567 13.6 104.119 12.576ZM98.0068 21.6C97.5268 22.88 96.7908 23.52 95.7668 23.52C94.7748 23.52 94.0388 22.88 93.5588 21.6C93.0788 20.32 92.8548 18.4 92.8548 15.872C92.8548 13.344 93.0788 11.424 93.5588 10.144C94.0068 8.832 94.7428 8.192 95.7668 8.192C96.7588 8.192 97.5268 8.832 98.0068 10.144C98.4868 11.424 98.7108 13.344 98.7108 15.872C98.7108 18.4 98.4868 20.32 98.0068 21.6Z" fill="white"/>
<path d="M116.275 22.688C115.571 21.696 115.219 20.48 115.219 19.264V7.744L115.059 7.584L107.795 9.088V9.344C108.787 10.464 109.331 11.904 109.331 13.408V19.264C109.331 20.512 108.947 21.728 108.243 22.752L107.667 23.552V23.776H116.851V23.552L116.275 22.688ZM109.715 5.088C110.003 5.344 110.323 5.536 110.707 5.696C111.123 5.824 111.539 5.92 111.987 5.92C112.467 5.92 112.883 5.824 113.299 5.696C113.683 5.536 114.035 5.344 114.323 5.088C114.611 4.832 114.835 4.544 114.995 4.192C115.155 3.808 115.219 3.424 115.219 2.976C115.219 2.592 115.155 2.208 114.995 1.856C114.835 1.504 114.611 1.184 114.323 0.928001C114.035 0.640001 113.683 0.448 113.299 0.288C112.883 0.16 112.467 0.0640011 111.987 0.0640011C111.539 0.0640011 111.123 0.16 110.707 0.288C110.323 0.448 110.003 0.640001 109.715 0.896C109.427 1.152 109.235 1.472 109.075 1.824C108.915 2.176 108.819 2.592 108.819 2.976C108.819 3.424 108.915 3.808 109.075 4.192C109.235 4.544 109.427 4.832 109.715 5.088Z" fill="white"/>
<path d="M137.822 18.208V12.032C137.822 11.392 137.694 10.784 137.438 10.24C137.182 9.664 136.862 9.216 136.414 8.8C135.966 8.416 135.422 8.128 134.846 7.904C134.238 7.68 133.566 7.584 132.862 7.584C132.286 7.584 131.71 7.648 131.166 7.776C130.622 7.904 130.11 8.096 129.63 8.32C129.118 8.544 128.67 8.8 128.254 9.12C127.838 9.408 127.454 9.76 127.134 10.08V7.744L126.974 7.584L119.71 9.088V9.312C120.702 10.464 121.246 11.904 121.246 13.408V18.272C121.246 20.16 120.67 22.016 119.582 23.552V23.776H128.638V23.552C127.646 21.984 127.134 20.16 127.134 18.272V10.88C127.454 10.56 127.838 10.304 128.286 10.144C128.734 9.952 129.214 9.856 129.726 9.856C130.43 9.856 131.006 10.08 131.39 10.528C131.774 10.944 131.966 11.52 131.966 12.224V18.336C131.966 20.192 131.422 21.984 130.43 23.552V23.776H139.486V23.552C138.398 21.984 137.822 20.128 137.822 18.208Z" fill="white"/>
<path d="M154.04 21.216C153.72 21.44 153.304 21.632 152.792 21.76C152.312 21.888 151.736 21.952 151.128 21.952C150.456 21.952 149.944 21.76 149.592 21.344C149.208 20.96 149.048 20.352 149.048 19.52V8.608H153.752V7.968H149.048V3.616H148.728C148.696 3.776 148.632 3.936 148.568 4.064C147.192 7.52 143.288 8.096 141.784 8.192C141.784 8.192 141.784 8.192 141.752 8.192L141.176 8.224V8.608H143.16V19.616C143.16 20.384 143.32 21.056 143.576 21.632C143.864 22.176 144.216 22.656 144.696 23.04C145.176 23.392 145.72 23.68 146.328 23.872C146.936 24.064 147.608 24.16 148.312 24.16C148.984 24.16 149.592 24.064 150.2 23.936C150.808 23.776 151.352 23.584 151.864 23.328C152.344 23.104 152.792 22.816 153.208 22.464C153.592 22.144 153.944 21.792 154.232 21.44L154.04 21.216Z" fill="white"/>
<path d="M174.157 12.768C173.389 11.776 172.205 10.944 170.605 10.336C171.853 9.856 172.781 9.248 173.421 8.416C174.061 7.616 174.381 6.688 174.381 5.632C174.381 3.968 173.709 2.624 172.333 1.568C170.957 0.544001 169.165 0 166.989 0C165.133 0 163.437 0.448 161.933 1.28C160.397 2.144 159.149 3.392 158.157 5.024L158.925 5.632C159.405 4.96 159.949 4.48 160.557 4.192C161.165 3.872 161.869 3.744 162.637 3.744C163.757 3.744 164.653 4.064 165.357 4.768C166.061 5.44 166.413 6.336 166.413 7.424C166.413 8.64 166.029 9.568 165.261 10.208C164.493 10.848 163.405 11.168 161.965 11.168H161.773V12.224C163.693 12.256 165.197 12.832 166.317 13.92C167.405 15.008 167.949 16.48 167.949 18.336C167.949 19.712 167.597 20.832 166.893 21.696C166.189 22.56 165.293 23.008 164.173 23.008C163.213 23.008 162.477 22.72 161.933 22.208C161.421 21.664 160.973 20.736 160.653 19.424C160.621 19.264 160.589 19.04 160.525 18.752C160.333 17.792 160.045 17.088 159.629 16.64C159.373 16.384 159.085 16.192 158.765 16.064C158.413 15.936 158.061 15.872 157.645 15.872C156.877 15.872 156.237 16.096 155.725 16.608C155.213 17.12 154.957 17.76 154.957 18.496C154.957 19.264 155.245 20 155.757 20.736C156.301 21.472 157.037 22.112 157.965 22.624C158.797 23.168 159.757 23.52 160.813 23.776C161.869 24.032 163.053 24.16 164.333 24.16C167.661 24.16 170.317 23.424 172.333 21.984C174.349 20.544 175.373 18.656 175.373 16.32C175.373 14.944 174.957 13.76 174.157 12.768Z" fill="white"/>
<path d="M199.61 7.872C198.97 6.464 198.042 5.312 196.858 4.384C195.674 3.488 194.234 2.784 192.602 2.336C190.938 1.888 189.082 1.664 187.066 1.664H177.114V1.92C178.362 3.968 179.002 6.272 179.002 8.672V16.928C179.002 19.328 178.33 21.696 177.082 23.744V24H187.002C189.082 24 190.938 23.776 192.602 23.328C194.298 22.88 195.706 22.176 196.89 21.248C198.074 20.32 199.002 19.168 199.61 17.76C200.25 16.352 200.57 14.688 200.57 12.8C200.57 10.912 200.25 9.28 199.61 7.872ZM193.53 17.472C193.338 18.72 192.986 19.776 192.474 20.608C191.962 21.44 191.322 22.08 190.49 22.464C189.658 22.88 188.602 23.072 187.354 23.072H185.274V2.592H187.354C188.57 2.592 189.562 2.784 190.394 3.2C191.226 3.616 191.898 4.256 192.41 5.088C192.922 5.952 193.274 7.04 193.498 8.352C193.754 9.664 193.85 11.2 193.85 13.024C193.85 14.72 193.754 16.192 193.53 17.472Z" fill="white"/>
</svg>
